<svg id="visual" viewBox="0 0 900 600" width="900" height="600" xmlns="http://www.w3.org/2000/svg"
        xmlns:xlink="http://www.w3.org/1999/xlink" version="1.1">
        <rect x="0" y="0" width="900" height="600" fill="#336097"></rect>
        <path
            d="M0 375L82 339L164 420L245 416L327 413L409 436L491 426L573 410L655 441L736 390L818 463L900 389L900 601L818 601L736 601L655 601L573 601L491 601L409 601L327 601L245 601L164 601L82 601L0 601Z"
            fill="#595d60"></path>
        <path
            d="M0 380L82 399L164 386L245 409L327 378L409 417L491 465L573 481L655 484L736 392L818 487L900 462L900 601L818 601L736 601L655 601L573 601L491 601L409 601L327 601L245 601L164 601L82 601L0 601Z"
            fill="#4d5359"></path>
        <path
            d="M0 458L82 491L164 425L245 478L327 458L409 415L491 456L573 497L655 430L736 481L818 494L900 472L900 601L818 601L736 601L655 601L573 601L491 601L409 601L327 601L245 601L164 601L82 601L0 601Z"
            fill="#434952"></path>
        <path
            d="M0 497L82 519L164 475L245 469L327 481L409 487L491 486L573 482L655 506L736 488L818 464L900 464L900 601L818 601L736 601L655 601L573 601L491 601L409 601L327 601L245 601L164 601L82 601L0 601Z"
            fill="#393f4a"></path>
        <path
            d="M0 525L82 529L164 509L245 541L327 508L409 544L491 490L573 530L655 527L736 507L818 521L900 546L900 601L818 601L736 601L655 601L573 601L491 601L409 601L327 601L245 601L164 601L82 601L0 601Z"
            fill="#313643"></path>
        <path
            d="M0 540L82 553L164 554L245 549L327 562L409 529L491 574L573 551L655 570L736 566L818 568L900 545L900 601L818 601L736 601L655 601L573 601L491 601L409 601L327 601L245 601L164 601L82 601L0 601Z"
            fill="#292c3b"></path>
    </svg>
