<svg id="visual" viewBox="0 0 960 540" width="960" height="540" xmlns="http://www.w3.org/2000/svg" xmlns:xlink="http://www.w3.org/1999/xlink" version="1.1"><path d="M189 0L191 12.8C193 25.7 197 51.3 196.8 77C196.7 102.7 192.3 128.3 196.8 154C201.3 179.7 214.7 205.3 221.2 231.2C227.7 257 227.3 283 222.8 308.8C218.3 334.7 209.7 360.3 202.5 386C195.3 411.7 189.7 437.3 194.7 463C199.7 488.7 215.3 514.3 223.2 527.2L231 540L0 540L0 527.2C0 514.3 0 488.7 0 463C0 437.3 0 411.7 0 386C0 360.3 0 334.7 0 308.8C0 283 0 257 0 231.2C0 205.3 0 179.7 0 154C0 128.3 0 102.7 0 77C0 51.3 0 25.7 0 12.8L0 0Z" fill="#949494"></path><path d="M190 0L183.5 12.8C177 25.7 164 51.3 158.2 77C152.3 102.7 153.7 128.3 159.5 154C165.3 179.7 175.7 205.3 173 231.2C170.3 257 154.7 283 152.5 308.8C150.3 334.7 161.7 360.3 160.2 386C158.7 411.7 144.3 437.3 141.7 463C139 488.7 148 514.3 152.5 527.2L157 540L0 540L0 527.2C0 514.3 0 488.7 0 463C0 437.3 0 411.7 0 386C0 360.3 0 334.7 0 308.8C0 283 0 257 0 231.2C0 205.3 0 179.7 0 154C0 128.3 0 102.7 0 77C0 51.3 0 25.7 0 12.8L0 0Z" fill="#6d6d6d"></path><path d="M125 0L126.8 12.8C128.7 25.7 132.3 51.3 135.5 77C138.7 102.7 141.3 128.3 141.3 154C141.3 179.7 138.7 205.3 133.2 231.2C127.7 257 119.3 283 115.7 308.8C112 334.7 113 360.3 112.8 386C112.7 411.7 111.3 437.3 107.8 463C104.3 488.7 98.7 514.3 95.8 527.2L93 540L0 540L0 527.2C0 514.3 0 488.7 0 463C0 437.3 0 411.7 0 386C0 360.3 0 334.7 0 308.8C0 283 0 257 0 231.2C0 205.3 0 179.7 0 154C0 128.3 0 102.7 0 77C0 51.3 0 25.7 0 12.8L0 0Z" fill="#484848"></path><path d="M82 0L85.7 12.8C89.3 25.7 96.7 51.3 93.3 77C90 102.7 76 128.3 69.7 154C63.3 179.7 64.7 205.3 66 231.2C67.3 257 68.7 283 73.2 308.8C77.7 334.7 85.3 360.3 86.7 386C88 411.7 83 437.3 79.2 463C75.3 488.7 72.7 514.3 71.3 527.2L70 540L0 540L0 527.2C0 514.3 0 488.7 0 463C0 437.3 0 411.7 0 386C0 360.3 0 334.7 0 308.8C0 283 0 257 0 231.2C0 205.3 0 179.7 0 154C0 128.3 0 102.7 0 77C0 51.3 0 25.7 0 12.8L0 0Z" fill="#262626"></path><path d="M39 0L41.2 12.8C43.3 25.7 47.7 51.3 50.2 77C52.7 102.7 53.3 128.3 50.8 154C48.3 179.7 42.7 205.3 41.5 231.2C40.3 257 43.7 283 47.7 308.8C51.7 334.7 56.3 360.3 56.7 386C57 411.7 53 437.3 48 463C43 488.7 37 514.3 34 527.2L31 540L0 540L0 527.2C0 514.3 0 488.7 0 463C0 437.3 0 411.7 0 386C0 360.3 0 334.7 0 308.8C0 283 0 257 0 231.2C0 205.3 0 179.7 0 154C0 128.3 0 102.7 0 77C0 51.3 0 25.7 0 12.8L0 0Z" fill="#000000"></path></svg>