<svg id="visual" viewBox="0 0 960 540" width="960" height="540" xmlns="http://www.w3.org/2000/svg"
        xmlns:xlink="http://www.w3.org/1999/xlink" version="1.1">
        <path
            d="M0 363L137 262L274 357L411 264L549 370L686 273L823 365L960 345L960 541L823 541L686 541L549 541L411 541L274 541L137 541L0 541Z"
            fill="#595d60"></path>
        <path
            d="M0 350L137 364L274 309L411 359L549 326L686 310L823 370L960 397L960 541L823 541L686 541L549 541L411 541L274 541L137 541L0 541Z"
            fill="#4b5157"></path>
        <path
            d="M0 367L137 363L274 394L411 371L549 384L686 443L823 417L960 438L960 541L823 541L686 541L549 541L411 541L274 541L137 541L0 541Z"
            fill="#3e444e"></path>
        <path
            d="M0 443L137 465L274 477L411 406L549 405L686 443L823 444L960 420L960 541L823 541L686 541L549 541L411 541L274 541L137 541L0 541Z"
            fill="#333845"></path>
        <path
            d="M0 486L137 476L274 506L411 471L549 485L686 516L823 512L960 466L960 541L823 541L686 541L549 541L411 541L274 541L137 541L0 541Z"
            fill="#292c3b"></path>
    </svg>