<svg id="visual" viewBox="0 0 960 540" width="960" height="540" xmlns="http://www.w3.org/2000/svg" xmlns:xlink="http://www.w3.org/1999/xlink" version="1.1">
    <rect x="0" y="0" width="960" height="540" fill="#102844"></rect>
    <path id="p11" d="M0 257L137 300L274 349L411 334L549 301L686 351L823 253L960 350L960 541L823 541L686 541L549 541L411 541L274 541L137 541L0 541Z" fill="#595d60"></path>
    <path id="p21" d="M0 311L137 367L274 309L411 353L549 361L686 299L823 366L960 328L960 541L823 541L686 541L549 541L411 541L274 541L137 541L0 541Z" fill="#4d5359"></path>
    <path id="p31" d="M0 394L137 378L274 388L411 356L549 354L686 389L823 351L960 354L960 541L823 541L686 541L549 541L411 541L274 541L137 541L0 541Z" fill="#434952"></path>
    <path id="p41" d="M0 435L137 445L274 392L411 442L549 445L686 454L823 405L960 437L960 541L823 541L686 541L549 541L411 541L274 541L137 541L0 541Z" fill="#393f4a"></path>
    <path id="p51" d="M0 453L137 457L274 442L411 482L549 485L686 435L823 448L960 468L960 541L823 541L686 541L549 541L411 541L274 541L137 541L0 541Z" fill="#313643"></path>
    <path id="p61" d="M0 485L137 485L274 500L411 466L549 480L686 495L823 491L960 487L960 541L823 541L686 541L549 541L411 541L274 541L137 541L0 541Z" fill="#292c3b"></path>

    <path id="p12" style="visibility:hidden" d="M0 363L137 262L274 357L411 264L549 370L686 273L823 365L960 345L960 541L823 541L686 541L549 541L411 541L274 541L137 541L0 541Z" fill="#595d60"></path>
    <path id="p22" style="visibility:hidden" d="M0 350L137 364L274 309L411 359L549 326L686 310L823 370L960 397L960 541L823 541L686 541L549 541L411 541L274 541L137 541L0 541Z" fill="#4b5157"></path>
    <path id="p32" style="visibility:hidden" d="M0 367L137 363L274 394L411 371L549 384L686 443L823 417L960 438L960 541L823 541L686 541L549 541L411 541L274 541L137 541L0 541Z" fill="#3e444e"></path>
    <path id="p42" style="visibility:hidden" d="M0 443L137 465L274 477L411 406L549 405L686 443L823 444L960 420L960 541L823 541L686 541L549 541L411 541L274 541L137 541L0 541Z" fill="#333845"></path>
    <path id="p52" style="visibility:hidden" d="M0 486L137 476L274 506L411 471L549 485L686 516L823 512L960 466L960 541L823 541L686 541L549 541L411 541L274 541L137 541L0 541Z" fill="#292c3b"></path>
</svg>