<?xml version="1.0" encoding="utf-8"?>
<!-- Generator: Adobe Illustrator 16.0.1, SVG Export Plug-In . SVG Version: 6.00 Build 0)  -->
<!DOCTYPE svg PUBLIC "-//W3C//DTD SVG 1.1//EN" "http://www.w3.org/Graphics/SVG/1.1/DTD/svg11.dtd">
<svg version="1.1" id="Layer_1" xmlns="http://www.w3.org/2000/svg" xmlns:xlink="http://www.w3.org/1999/xlink" x="0px" y="0px"
	 width="682px" height="614px" viewBox="0 0 682 614" enable-background="new 0 0 682 614" xml:space="preserve">
<linearGradient id="SVGID_1_" gradientUnits="userSpaceOnUse" x1="3.6514" y1="307.7046" x2="678.6514" y2="307.7046">
	<!-- <stop  offset="0" style="stop-color:#ffffff"/> -->
	<stop  offset="0" style="stop-color:#7C6925">
		<animate attributeName="stop-color" values="#7C6925;#5F4D0F;#7C6925" dur="6s" repeatCount="indefinite" />
		<animate attributeName="offset" values="0;0.2;0.5;0.8;1;0.8;0.5;0.2;0" dur="15s" repeatCount="indefeinite" />
	</stop>
	<stop  offset="1" style="stop-color:#5F4D0F">
		<animate attributeName="stop-color" values="#5F4D0F;#7C6925;#5F4D0F" dur="6s" repeatCount="indefinite" />
		<animate attributeName="offset" values="0;0.2;0.5;0.8;1;0.8;0.5;0.2;0" dur="9s" repeatCount="indefeinite" />
	</stop>
	
</linearGradient>
<path fill-rule="evenodd" clip-rule="evenodd" fill="url(#SVGID_1_)" d="M573.417,441.379c0-12.395-7.217-23.009-17.604-27.992
	c4.072-25.599,12.957-42.084,12.957-42.084l109.881-269.032c0,0-97.738,38.006-96.288,122.894
	c-8.023-12.371-21.657-23.728-43.27-33.388c0,0,34.121,29.137-5.023,78.239c-33.893,42.482,5.143,62.98,16.234,67.758
	c-3.963,4.195-8.327,8.639-13.165,12.875c-92.312,70.261-152.638-11.045-164.492-29.222c-0.512-1.192-0.991-2.464-1.408-3.599
	c12.062-0.82,56.521-7.122,41.024-58.064c-17.851-58.74,25.115-74.781,25.115-74.781c-23.825,1.809-40.869,8.083-53.106,16.83
	c33.82-78.778-43.149-146.336-43.149-146.336s-78.657,69.031-41.897,149.031c-12.337-10.134-30.476-17.496-56.643-19.525
	c0,0,42.976,16.041,25.109,74.781c-16.601,54.991,36.411,57.97,43.337,58.121c-0.459,1.12-0.883,2.35-1.43,3.542
	c-11.805,18.177-72.169,99.482-164.472,29.222c-4.846-4.236-9.23-8.68-13.166-12.875c11.075-4.777,50.127-25.275,16.26-67.758
	c-39.143-49.103-5.147-78.239-5.147-78.239c-21.477,9.661-35.1,21.017-43.154,33.388c1.49-84.888-96.269-122.894-96.269-122.894
	l109.875,269.032c0,0,9.006,16.847,13.075,42.985c-9.497,5.236-15.857,15.37-15.857,27.091c0,11.177,6.022,21.012,14.993,26.376
	c-2.319,11.881-6.141,24.484-12.21,37.132c0,0,46.311,0.409,97.527,4.904l50.156,50.142h158.24l50.012-49.968
	c51.89-4.669,99.31-5.078,99.31-5.078c-5.927-12.234-9.713-24.519-12-36.19C566.664,463.633,573.417,453.32,573.417,441.379z"/>
</svg>
