<?xml version="1.0" encoding="utf-8"?>
<!-- Generator: Adobe Illustrator 16.0.1, SVG Export Plug-In . SVG Version: 6.00 Build 0)  -->
<!DOCTYPE svg PUBLIC "-//W3C//DTD SVG 1.1//EN" "http://www.w3.org/Graphics/SVG/1.1/DTD/svg11.dtd">
<svg version="1.1" id="Layer_1" xmlns="http://www.w3.org/2000/svg" xmlns:xlink="http://www.w3.org/1999/xlink" x="0px" y="0px"
	 width="785px" height="589px" viewBox="0 0 785 589" enable-background="new 0 0 785 589" xml:space="preserve">
<linearGradient id="SVGID_1_" gradientUnits="userSpaceOnUse" x1="117.5" y1="294.5" x2="667.5" y2="294.5">
	<stop  offset="0" style="stop-color:#7C6925"/>
	<stop  offset="1" style="stop-color:#5F4D0F"/>
</linearGradient>
<circle fill="none" stroke="url(#SVGID_1_)" stroke-width="25" stroke-miterlimit="10" cx="392.5" cy="294.5" r="262.5"/>
<g>
	<text transform="matrix(1 0 0 1 170.6025 360.7998)" font-family="'Pacifico-Regular'" font-size="200">FIN</text>
	<g>
		<linearGradient id="SVGID_2_" gradientUnits="userSpaceOnUse" x1="170.4023" y1="277.7998" x2="614.5996" y2="277.7998">
			<stop  offset="0" style="stop-color:#7C6925"/>
			<stop  offset="1" style="stop-color:#5F4D0F"/>
		</linearGradient>
		<path fill="url(#SVGID_2_)" d="M355.703,198.4c1.399,1.734,2.1,4,2.1,6.8c0,9.2-4.935,13.469-14.8,12.8l-7-0.6
			c-7.869-0.666-15.7-1.2-23.5-1.6s-15.969-0.6-24.5-0.6h-9c-1.6,19.734-3.269,37.734-5,54l34.4-0.6c4.931,0,8.23,0.869,9.899,2.6
			c1.666,1.734,2.5,4.069,2.5,7c0,4.535-1.334,8.1-4,10.7c-2.669,2.6-6.469,3.9-11.399,3.9h-34.2l-1.2,8.601
			c-2.8,22-8.769,37.668-17.9,47c-9.134,9.334-21.7,13.999-37.7,13.999c-9.068,0-17.4-1.965-25-5.899
			c-7.6-3.932-13.2-8.7-16.8-14.301c-1.469-2.266-2.2-5-2.2-8.199c0-3.2,0.766-6,2.3-8.4c1.531-2.4,3.431-3.6,5.7-3.6
			c1.6,0,3.166,0.534,4.7,1.6c1.531,1.068,3.5,3.135,5.9,6.2c6.4,8.399,14.332,12.601,23.8,12.601c7.6,0,13.965-3.101,19.1-9.301
			c5.131-6.199,8.432-15.965,9.9-29.3l1.2-11h-9.6c-3.068,0-5.7-0.866-7.9-2.6c-2.2-1.731-3.3-4.2-3.3-7.4
			c0-4.131,1.065-7.3,3.2-9.5c2.131-2.2,5.266-3.3,9.4-3.3c3.731,0,7.4-0.066,11-0.2c1.6-14.666,3.331-32.466,5.2-53.4
			c-14.4,1.334-24.534,3.668-30.4,7c-5.869,3.334-8.8,8.269-8.8,14.8c0,4.535,1.331,8.869,4,13c0.8,1.2,1.2,2.4,1.2,3.6
			c0,2.4-1.334,4.5-4,6.3c-2.668,1.8-5.668,2.7-9,2.7c-3.6,0-6.668-1.065-9.2-3.2c-1.6-1.331-3.135-4.065-4.6-8.2
			c-1.469-4.131-2.2-8.731-2.2-13.8c0-16.531,8.5-28.531,25.5-36c17-7.465,41.832-11.2,74.5-11.2c22.666,0,42.666,1.2,60,3.6
			C351.734,195.534,354.302,196.668,355.703,198.4z"/>
		<linearGradient id="SVGID_3_" gradientUnits="userSpaceOnUse" x1="170.4023" y1="277.7998" x2="614.5996" y2="277.7998">
			<stop  offset="0" style="stop-color:#7C6925"/>
			<stop  offset="1" style="stop-color:#5F4D0F"/>
		</linearGradient>
		<path fill="url(#SVGID_3_)" d="M420.6,194.9c2.4,1.668,3.602,3.7,3.602,6.1c0,4.269-1.336,7.7-4,10.3
			c-2.67,2.6-6.469,3.9-11.4,3.9c-7.734,0-13.6,0.069-17.6,0.2c-0.269,1.6-1.469,8.8-3.601,21.6c-2.399,14.269-3.868,23-4.399,26.2
			l-4.2,26.2c-2.935,19.6-5.269,36-7,49.2c2.8-0.131,6.6-0.199,11.4-0.199c7.065,0,11.865,0.934,14.4,2.799
			c2.531,1.869,3.799,4.67,3.799,8.4c0,3.469-1.367,6.4-4.1,8.801c-2.734,2.399-6.568,3.6-11.5,3.6c-3.334,0-8.6-0.135-15.8-0.4
			c-6.669-0.269-11.069-0.399-13.2-0.399c-8.4,0-17.6,0.73-27.6,2.199c-4.4,0.666-7.535,1-9.4,1c-2.935,0-5.4-0.8-7.4-2.399
			c-2-1.601-3-3.932-3-7c0-4.801,2.135-8.531,6.4-11.2c4.266-2.665,10.266-4.065,18-4.2l9.4-0.199l0.6-4.4
			c3.2-21.332,5.531-36.4,7-45.2l4.4-26.2c2.665-15.465,5.065-31.4,7.199-47.8l-16.8,0.2c-4.8,0-8.1-0.766-9.899-2.3
			c-1.801-1.531-2.7-3.7-2.7-6.5c0-9.065,6.531-13.931,19.6-14.6c6.132-0.266,13.601-0.4,22.4-0.4l36.6,0.2
			C415.266,192.4,418.201,193.234,420.6,194.9z"/>
		<linearGradient id="SVGID_4_" gradientUnits="userSpaceOnUse" x1="170.4023" y1="277.7998" x2="614.5996" y2="277.7998">
			<stop  offset="0" style="stop-color:#7C6925"/>
			<stop  offset="1" style="stop-color:#5F4D0F"/>
		</linearGradient>
		<path fill="url(#SVGID_4_)" d="M447.799,358.5c-2.133-2.2-3.199-6.365-3.199-12.5c0-4.131,0.4-9.131,1.199-15
			c0.801-5.865,2.201-14.731,4.201-26.6c0.266-1.601,1.33-8.101,3.199-19.5c1.865-11.4,3.531-23.366,5-35.9
			c1.332-10.666,2-18.666,2-24c0-6-2.199-9-6.6-9c-3.334,0-7.5,1.769-12.5,5.3c-5,3.534-10.369,9.169-16.1,16.9
			c-1.869,2.535-3.936,3.8-6.201,3.8c-1.867,0-3.5-0.9-4.898-2.7c-1.4-1.8-2.102-3.831-2.102-6.1c0-2.266,0.4-4.431,1.201-6.5
			c0.799-2.065,2.266-4.565,4.4-7.5c6.531-8.931,13.799-15.831,21.799-20.7c8-4.866,16.4-7.3,25.201-7.3
			c7.33,0,12.83,2.269,16.5,6.8c3.664,4.534,5.5,11.134,5.5,19.8c0,7.734-1.07,18.935-3.201,33.6
			c6.666-19.731,15.131-34.7,25.4-44.9c10.266-10.2,22.332-15.3,36.199-15.3c10.932,0,19.166,3.1,24.701,9.3
			c5.531,6.2,8.299,14.5,8.299,24.9c0,5.869-0.867,13-2.6,21.4L563,304c-1.334,6.668-2,12.4-2,17.199
			c0,5.601,1.299,9.801,3.9,12.601c2.6,2.8,6.23,4.2,10.898,4.2c4.4,0,8.701-1.466,12.9-4.4c4.201-2.932,9.166-7.8,14.9-14.6
			c1.6-1.865,3.4-2.801,5.4-2.801c1.73,0,3.1,0.801,4.1,2.4s1.5,3.801,1.5,6.6c0,5.201-1.27,9.335-3.801,12.4
			c-6.934,8.4-13.799,14.535-20.6,18.4c-6.799,3.868-13.934,5.8-21.4,5.8c-11.334,0-20.199-3.366-26.6-10.101
			c-6.4-6.73-9.6-15.766-9.6-27.1c0-4.4,0.365-9.199,1.1-14.4c0.732-5.199,1.967-11.799,3.701-19.799l8-36.6
			c0.266-1.2,0.73-3.331,1.398-6.4c0.666-3.066,1.201-5.966,1.602-8.7c0.398-2.731,0.6-5.431,0.6-8.1c0-4.266-1.201-7.666-3.6-10.2
			c-2.4-2.531-5.801-3.8-10.201-3.8c-8,0-16,4.269-24,12.8c-8,8.534-15.4,22.3-22.199,41.3c-6.801,19-12.135,43.3-16,72.9
			c-0.936,6.801-2.301,11.535-4.1,14.2c-1.801,2.669-5.301,4-10.5,4C453.465,361.8,449.932,360.7,447.799,358.5z"/>
	</g>
</g>
</svg>
