<?xml version="1.0" encoding="utf-8"?>
<!-- Generator: Adobe Illustrator 16.0.1, SVG Export Plug-In . SVG Version: 6.00 Build 0)  -->
<!DOCTYPE svg PUBLIC "-//W3C//DTD SVG 1.1//EN" "http://www.w3.org/Graphics/SVG/1.1/DTD/svg11.dtd">
<svg version="1.1" id="Layer_1" xmlns="http://www.w3.org/2000/svg" xmlns:xlink="http://www.w3.org/1999/xlink" x="0px" y="0px"
	 width="204px" height="204px" viewBox="0 0 204 204" enable-background="new 0 0 204 204" xml:space="preserve">
<linearGradient id="SVGID_1_" gradientUnits="userSpaceOnUse" x1="191.5283" y1="-190.5801" x2="432.0865" y2="-191.4636" gradientTransform="matrix(1 0 0 -1 -204 -89)">
	<stop  offset="0" style="stop-color:#7C6925"/>
	<stop  offset="1" style="stop-color:#5F4D0F"/>
</linearGradient>
<path fill="url(#SVGID_1_)" d="M187.639,69.902c5.453-2.044,11.588,0.712,13.057,6.346c5.543,21.238,4.106,43.802-4.26,64.297
	c-9.699,23.765-28,42.997-51.254,53.863s-49.749,12.565-74.2,4.76c-24.451-7.805-45.061-24.541-57.718-46.87
	C0.607,129.971-3.166,103.689,2.696,78.702c5.863-24.988,20.931-46.848,42.198-61.217c21.267-14.37,47.17-20.194,72.542-16.31
	c21.881,3.35,41.979,13.708,57.355,29.372c4.078,4.156,3.292,10.834-1.262,14.462c-4.555,3.628-11.145,2.818-15.334-1.226
	c-11.983-11.568-27.318-19.219-43.951-21.765c-20.126-3.081-40.674,1.539-57.545,12.938C39.829,46.355,27.876,63.695,23.225,83.518
	c-4.651,19.822-1.657,40.669,8.383,58.382c10.04,17.714,26.39,30.99,45.786,37.182s40.414,4.843,58.86-3.777
	c18.446-8.619,32.964-23.875,40.659-42.727c6.359-15.579,7.67-32.667,3.9-48.89C179.497,78.017,182.188,71.946,187.639,69.902z"/>
<g>
	<path fill="#FFFFFF" d="M75.656,89.8c-4.608,0-8.496,2.844-8.496,7.164c0,2.052,1.116,3.672,2.808,4.68
		c-1.908,0.972-3.888,3.024-3.888,5.904c0,5.004,4.572,7.956,9.576,7.956c5.004,0,9.576-2.952,9.576-7.956
		c0-2.88-1.98-4.932-3.888-5.904c1.692-1.008,2.808-2.628,2.808-4.68C84.152,92.644,80.264,89.8,75.656,89.8z M78.752,107.188
		c0,1.692-1.26,2.916-3.096,2.916c-1.836,0-3.096-1.224-3.096-2.916c0-1.619,1.26-2.879,3.096-2.879
		C77.492,104.309,78.752,105.568,78.752,107.188z M75.656,95.056c1.44,0,2.556,0.972,2.556,2.376c0,1.404-1.08,2.376-2.556,2.376
		c-1.476,0-2.556-0.972-2.556-2.376C73.1,96.028,74.216,95.056,75.656,95.056z M124.381,96.028c0-3.42-2.771-6.084-6.336-6.084
		s-6.336,2.664-6.336,6.084c0,3.42,2.771,6.084,6.336,6.084S124.381,99.448,124.381,96.028z M120.133,96.028
		c0,1.26-0.9,2.124-2.088,2.124s-2.088-0.864-2.088-2.124c0-1.26,0.9-2.124,2.088-2.124S120.133,94.768,120.133,96.028z
		 M137.881,90.268h-5.508L114.014,115h5.508L137.881,90.268z M127.514,109.24c0,3.42,2.771,6.084,6.336,6.084
		c3.563,0,6.336-2.664,6.336-6.084s-2.772-6.084-6.336-6.084C130.285,103.156,127.514,105.82,127.514,109.24z M131.762,109.24
		c0-1.26,0.899-2.124,2.088-2.124c1.188,0,2.088,0.864,2.088,2.124s-0.9,2.124-2.088,2.124
		C132.661,111.364,131.762,110.5,131.762,109.24z"/>
	<path fill="#FFFFFF" d="M95.25,104.92c0.54-0.863,1.583-1.549,2.916-1.549c1.836,0,3.168,1.297,3.168,3.061
		s-1.332,3.168-3.168,3.168c-1.907,0-2.951-1.26-3.06-2.375H88.77c0.108,5.004,3.78,8.279,9.504,8.279
		c5.364,0,9.467-3.996,9.467-9.396c0-4.463-3.203-8.172-7.919-8.172c-1.548,0-2.916,0.396-4.104,1.152l0.468-3.168h9.829v-5.615
		H91.218l-1.836,13.391L95.25,104.92z"/>
</g>
</svg>
