<?xml version="1.0" encoding="utf-8"?>
<!-- Generator: Adobe Illustrator 16.0.1, SVG Export Plug-In . SVG Version: 6.00 Build 0)  -->
<!DOCTYPE svg PUBLIC "-//W3C//DTD SVG 1.1//EN" "http://www.w3.org/Graphics/SVG/1.1/DTD/svg11.dtd">
<svg version="1.1" id="Layer_1" xmlns="http://www.w3.org/2000/svg" xmlns:xlink="http://www.w3.org/1999/xlink" x="0px" y="0px"
	 width="204px" height="204px" viewBox="0 0 204 204" enable-background="new 0 0 204 204" xml:space="preserve">
<linearGradient id="SVGID_1_" gradientUnits="userSpaceOnUse" x1="191.5283" y1="-190.5801" x2="432.0865" y2="-191.4636" gradientTransform="matrix(1 0 0 -1 -204 -89)">
	<stop  offset="0" style="stop-color:#7C6925"/>
	<stop  offset="1" style="stop-color:#5F4D0F"/>
</linearGradient>
<path fill="url(#SVGID_1_)" d="M187.639,69.902c5.453-2.044,11.588,0.712,13.057,6.346c5.543,21.238,4.106,43.802-4.26,64.297
	c-9.699,23.765-28,42.997-51.254,53.863s-49.749,12.565-74.2,4.76c-24.451-7.805-45.061-24.541-57.718-46.87
	C0.607,129.971-3.166,103.689,2.696,78.702c5.863-24.988,20.931-46.848,42.198-61.217c21.267-14.37,47.17-20.194,72.542-16.31
	c21.881,3.35,41.979,13.708,57.355,29.372c4.078,4.156,3.292,10.834-1.262,14.462c-4.555,3.628-11.145,2.818-15.334-1.226
	c-11.983-11.568-27.318-19.219-43.951-21.765c-20.126-3.081-40.674,1.539-57.545,12.938C39.829,46.355,27.876,63.695,23.225,83.518
	c-4.651,19.822-1.657,40.669,8.383,58.382c10.04,17.714,26.39,30.99,45.786,37.182s40.414,4.843,58.86-3.777
	c18.446-8.619,32.964-23.875,40.659-42.727c6.359-15.579,7.67-32.667,3.9-48.89C179.497,78.017,182.188,71.946,187.639,69.902z"/>
<path fill="#FFFFFF" d="M66.08,99.16c0,4.645,3.24,8.352,7.956,8.352c0.612,0,1.044-0.072,1.296-0.216L69.896,115h7.632l5.544-8.82
	c1.404-2.268,2.304-4.86,2.304-7.2c0-5.256-4.068-9.18-9.648-9.18C70.256,89.8,66.08,93.76,66.08,99.16z M72.416,98.908
	c0-1.836,1.476-3.24,3.348-3.24s3.312,1.44,3.312,3.276s-1.44,3.24-3.312,3.24S72.416,100.744,72.416,98.908z M109.665,102.652
	c0-6.804-3.888-12.853-10.944-12.853c-7.092,0-10.98,6.048-10.98,12.853c0,6.804,3.888,12.852,10.98,12.852
	C105.777,115.504,109.665,109.456,109.665,102.652z M102.969,102.652c0,3.348-1.296,6.623-4.248,6.623
	c-2.988,0-4.284-3.275-4.284-6.623c0-3.348,1.296-6.625,4.284-6.625C101.673,96.028,102.969,99.304,102.969,102.652z
	 M124.521,96.028c0-3.42-2.772-6.084-6.336-6.084c-3.564,0-6.336,2.664-6.336,6.084c0,3.42,2.771,6.084,6.336,6.084
	C121.749,102.112,124.521,99.448,124.521,96.028z M120.273,96.028c0,1.26-0.9,2.124-2.088,2.124c-1.188,0-2.088-0.864-2.088-2.124
	c0-1.26,0.899-2.124,2.088-2.124C119.373,93.904,120.273,94.768,120.273,96.028z M138.021,90.268h-5.508L114.152,115h5.509
	L138.021,90.268z M127.652,109.24c0,3.42,2.772,6.084,6.336,6.084c3.564,0,6.337-2.664,6.337-6.084s-2.772-6.084-6.337-6.084
	C130.425,103.156,127.652,105.82,127.652,109.24z M131.9,109.24c0-1.26,0.9-2.124,2.088-2.124c1.188,0,2.089,0.864,2.089,2.124
	s-0.9,2.124-2.089,2.124C132.801,111.364,131.9,110.5,131.9,109.24z"/>
</svg>
