<?xml version="1.0" encoding="utf-8"?>
<!-- Generator: Adobe Illustrator 16.0.1, SVG Export Plug-In . SVG Version: 6.00 Build 0)  -->
<!DOCTYPE svg PUBLIC "-//W3C//DTD SVG 1.1//EN" "http://www.w3.org/Graphics/SVG/1.1/DTD/svg11.dtd">
<svg version="1.1" id="Layer_1" xmlns="http://www.w3.org/2000/svg" xmlns:xlink="http://www.w3.org/1999/xlink" x="0px" y="0px"
	 width="16px" height="16px" viewBox="0 0 16 16" enable-background="new 0 0 16 16" xml:space="preserve">
<path fill-rule="evenodd" clip-rule="evenodd" fill="#FFFFFF" d="M17.735,7.799c-0.005,0-0.009-0.001-0.014-0.001
	c-0.92-0.169-1.597-0.356-3.885-0.334c-0.041,0.131-0.086,0.257-0.136,0.377c0.781,0.026,2.256,0.109,3.999,0.64
	c0.036,0.011,0.058,0.049,0.046,0.083c-0.01,0.029-0.035,0.048-0.064,0.048c-0.005,0-0.014-0.002-0.02-0.003
	c-1.769-0.538-3.29-0.612-4.019-0.635c-0.632,1.38-1.928,1.897-4.026,2.111c0.681,0.427,0.876,0.959,0.876,2.404
	c0,1.441-0.021,1.637-0.015,1.969c0.007,0.545,0.811,0.807,0.779,0.981s-0.671,0.147-0.973,0.042
	c-0.85-0.293-0.766-0.997-0.766-0.997l-0.026-1.931c0,0,0.058-1.04-0.33-1.04c0,0.21,0,2.413,0,3.16
	c0,0.688,0.484,0.896,0.484,1.149c0,0.438-0.882-0.042-1.155-0.314c-0.416-0.414-0.368-1.292-0.357-1.986
	c0.008-0.67-0.007-2.137-0.007-2.137l-0.282,0.006c0,0,0.115,3.204-0.149,3.788c-0.341,0.75-1.371,1.006-1.371,0.666
	c0-0.23,0.252-0.156,0.394-0.672c0.119-0.437,0.079-3.704,0.079-3.704s-0.331,0.195-0.331,0.807c0,0.278-0.007,1.878-0.007,2.354
	c0,0.599-0.856,0.94-1.266,0.94c-0.209,0-0.467-0.01-0.467-0.12c0-0.277,0.781-0.439,0.781-1.015c0-0.499-0.011-1.786-0.011-1.786
	s-0.395,0.067-0.957,0.067c-1.418,0-1.867-0.898-2.08-1.402c-0.279-0.657-0.639-0.966-1.022-1.212
	c-0.234-0.151-0.29-0.329-0.017-0.38c1.256-0.235,1.578,1.416,2.416,1.679c0.598,0.187,1.368,0.105,1.751-0.139
	c0.051-0.504,0.416-0.94,0.72-1.171C4.178,9.889,2.913,9.153,2.258,7.969c-2.231,0.054-2.833,0.369-3.76,0.6
	c-0.068,0.018-0.134,0.033-0.198,0.049c-0.005,0.001-0.011,0.001-0.017,0.001c-0.03,0-0.058-0.02-0.065-0.05
	c-0.009-0.036,0.014-0.073,0.05-0.083c0.063-0.015,0.13-0.031,0.196-0.049c0.926-0.229,1.52-0.541,3.724-0.601
	C2.126,7.715,2.072,7.591,2.022,7.461c-0.857-0.008-2.835,0.113-3.74,0.336c-0.005,0.001-0.01,0.002-0.016,0.002
	c-0.029,0-0.058-0.021-0.065-0.051C-1.808,7.711-1.786,7.676-1.75,7.667c0.897-0.221,2.811-0.343,3.724-0.342
	C1.769,6.725,1.678,6.038,1.678,5.269c0-1.365,0.428-1.879,1.002-2.607C2.24,1.106,2.836,0.043,2.836,0.043s0.923-0.19,2.668,1.052
	c0.946-0.403,3.467-0.436,4.664-0.089c0.73-0.481,2.071-1.164,2.609-0.973c0.148,0.234,0.462,0.917,0.191,2.417
	c0.183,0.329,1.138,1.029,1.142,3.01c-0.017,0.73-0.094,1.348-0.234,1.869c2.274-0.019,2.95,0.168,3.87,0.337
	c0.038,0.007,0.061,0.042,0.054,0.078C17.794,7.775,17.767,7.799,17.735,7.799z M1.835,9.792c-0.084,0-0.151,0.045-0.151,0.101
	c0,0.057,0.067,0.102,0.151,0.102c0.084,0,0.151-0.045,0.151-0.102C1.986,9.837,1.919,9.792,1.835,9.792z M2.308,10.047
	c-0.084,0-0.151,0.046-0.151,0.102c0,0.058,0.067,0.101,0.151,0.101c0.084,0,0.152-0.043,0.152-0.101
	C2.46,10.093,2.392,10.047,2.308,10.047z M2.596,10.391c-0.083,0-0.151,0.045-0.151,0.102c0,0.055,0.068,0.1,0.151,0.1
	c0.084,0,0.153-0.045,0.153-0.1C2.749,10.436,2.68,10.391,2.596,10.391z M2.85,10.775c-0.084,0-0.152,0.046-0.152,0.101
	c0,0.058,0.068,0.101,0.152,0.101c0.083,0,0.151-0.043,0.151-0.101C3.001,10.821,2.934,10.775,2.85,10.775z M3.138,11.14
	c-0.083,0-0.15,0.045-0.15,0.101c0,0.057,0.067,0.102,0.15,0.102c0.085,0,0.153-0.045,0.153-0.102
	C3.291,11.185,3.223,11.14,3.138,11.14z M3.53,11.449c-0.084,0-0.153,0.044-0.153,0.102c0,0.055,0.068,0.101,0.153,0.101
	c0.083,0,0.15-0.046,0.15-0.101C3.68,11.493,3.613,11.449,3.53,11.449z M4.075,11.651c-0.084,0-0.152,0.046-0.152,0.101
	s0.068,0.101,0.152,0.101c0.083,0,0.152-0.046,0.152-0.101S4.159,11.651,4.075,11.651z M4.623,11.651
	c-0.083,0-0.153,0.046-0.153,0.101s0.07,0.101,0.153,0.101c0.083,0,0.152-0.046,0.152-0.101S4.706,11.651,4.623,11.651z
	 M5.173,11.565c-0.085,0-0.152,0.043-0.152,0.101c0,0.056,0.067,0.101,0.152,0.101c0.084,0,0.151-0.045,0.151-0.101
	C5.324,11.608,5.257,11.565,5.173,11.565z M10.191,4.702c-0.045,0-0.115,0.005-0.295,0.018c-0.38,0.028-1.088,0.079-1.789,0.079
	c-0.774,0-1.554-0.048-2.021-0.077c-0.218-0.013-0.325-0.02-0.385-0.02c-0.88,0-1.59,0.292-2.053,0.845
	C3.172,6.115,3.135,6.725,3.135,6.899c0,1.676,1.27,2.642,3.573,2.722C7.14,9.637,7.602,9.644,8.08,9.644
	c0.475,0,0.944-0.007,1.396-0.021c2.689-0.086,3.253-1.473,3.253-2.618C12.729,5.891,12.064,4.702,10.191,4.702z M10.638,8.322
	c-0.532,0-0.963-0.55-0.963-1.34c0-0.789,0.431-1.429,0.963-1.429c0.534,0,0.966,0.64,0.966,1.429
	C11.604,7.771,11.172,8.322,10.638,8.322z M8.418,8.967C8.399,8.99,8.377,9.014,8.354,9.035C8.342,9.046,8.33,9.056,8.318,9.064
	C8.224,9.134,8.103,9.179,7.962,9.179c-0.027,0-0.053-0.002-0.079-0.005C7.806,9.163,7.735,9.139,7.671,9.105
	C7.621,9.08,7.575,9.047,7.535,9.014c-0.04-0.035-0.074-0.073-0.101-0.11C7.408,8.865,7.389,8.828,7.378,8.794
	C7.37,8.771,7.366,8.75,7.366,8.731c0-0.037,0.03-0.067,0.068-0.067c0.037,0,0.067,0.03,0.067,0.067
	c0,0.022,0.019,0.063,0.053,0.106C7.574,8.863,7.601,8.89,7.631,8.916c0.01,0.009,0.021,0.018,0.031,0.025
	c0.057,0.041,0.125,0.075,0.203,0.094c0.032,0.006,0.063,0.009,0.098,0.009c0.234,0,0.409-0.165,0.409-0.313
	c0-0.037,0.03-0.067,0.067-0.067s0.068,0.03,0.068,0.067c0,0.013-0.001,0.027-0.003,0.04C8.495,8.838,8.465,8.905,8.418,8.967z
	 M8.127,8.332C8.114,8.345,8.101,8.356,8.085,8.368c-0.037,0.025-0.082,0.039-0.13,0.039c-0.011,0-0.024,0-0.035-0.002
	C7.897,8.401,7.875,8.394,7.854,8.385c-0.01-0.006-0.02-0.011-0.029-0.018C7.801,8.351,7.778,8.33,7.763,8.305
	C7.745,8.28,7.734,8.252,7.727,8.223C7.724,8.207,7.723,8.192,7.723,8.176s0.001-0.032,0.004-0.046
	c0.005-0.025,0.016-0.048,0.027-0.069c0.009-0.016,0.019-0.029,0.032-0.042C7.787,8.016,7.788,8.014,7.79,8.012
	C7.833,7.97,7.891,7.945,7.955,7.945c0.128,0,0.232,0.103,0.232,0.231c0,0.032-0.007,0.062-0.02,0.09
	C8.158,8.29,8.146,8.312,8.127,8.332z M6.04,8.032C5.992,8.083,5.94,8.13,5.885,8.169C5.831,8.208,5.773,8.241,5.712,8.264
	C5.652,8.29,5.589,8.306,5.524,8.314C5.492,8.319,5.459,8.322,5.426,8.322c-0.533,0-0.965-0.55-0.965-1.34
	c0-0.789,0.432-1.429,0.965-1.429c0.033,0,0.065,0.003,0.098,0.008C5.589,5.57,5.652,5.59,5.712,5.617
	c0.061,0.028,0.119,0.064,0.173,0.109C5.94,5.769,5.992,5.821,6.04,5.879c0.047,0.058,0.09,0.123,0.129,0.193
	C6.308,6.32,6.39,6.636,6.39,6.981c0,0.346-0.082,0.645-0.221,0.873C6.13,7.918,6.087,7.979,6.04,8.032z M1.376,11.071
	c-0.362,0-0.001-0.568,0-0.822C1.383,10.512,1.74,11.071,1.376,11.071z"/>
</svg>
