<?xml version="1.0" encoding="utf-8"?>
<!-- Generator: Adobe Illustrator 16.0.1, SVG Export Plug-In . SVG Version: 6.00 Build 0)  -->
<!DOCTYPE svg PUBLIC "-//W3C//DTD SVG 1.1//EN" "http://www.w3.org/Graphics/SVG/1.1/DTD/svg11.dtd">
<svg version="1.1" id="Layer_1" xmlns="http://www.w3.org/2000/svg" xmlns:xlink="http://www.w3.org/1999/xlink" x="0px" y="0px"
	 width="204px" height="204px" viewBox="0 0 204 204" enable-background="new 0 0 204 204" xml:space="preserve">
<path fill-rule="evenodd" clip-rule="evenodd" fill="#B71F3A" d="M2,14.936c23.59,0,47.19,0,70.78,0
	c9.771,16.922,19.545,33.848,29.317,50.771c0.061,0,0.125,0,0.19,0c9.708-16.924,19.417-33.85,29.123-50.771
	c23.527,0,47.063,0,70.59,0c0,0.257,0,0.514,0,0.771c-11.571,19.946-23.146,39.898-34.718,59.845
	c-0.126-0.065-0.255-0.128-0.385-0.192c0-11.002,0-22.009,0-33.012c-7.907,0.065-15.814,0.127-23.722,0.192
	c-13.693,24.001-27.39,48.008-41.079,72.007c-0.129-0.064-0.259-0.129-0.389-0.194c-9.128-16.083-18.258-32.175-27.386-48.261
	c-3.277-5.79-6.557-11.583-9.836-17.374c-1.259-2.299-2.115-4.767-3.856-6.563c-7.842,0.128-15.687,0.257-23.529,0.385
	c-0.065,11.002-0.129,22.009-0.192,33.012c-0.129-0.065-0.257-0.128-0.387-0.192C25.015,55.219,13.506,35.074,2,14.936z
	 M55.808,74.973c15.428,25.995,30.86,51.996,46.29,77.993c0.061,0,0.125,0,0.19,0c15.365-25.997,30.73-51.998,46.095-77.993
	c0,0.129,0,0.257,0,0.387c0,11.13,0,22.266,0,33.398c-11.442,19.749-22.888,39.512-34.33,59.265
	c-1.83,3.183-10.34,20.099-12.344,21.042c-12.276-21.62-24.558-43.245-36.835-64.865c-3.085-5.211-6.172-10.426-9.257-15.636
	C55.68,97.368,55.743,86.167,55.808,74.973z"/>
</svg>
